<svg xmlns="http://www.w3.org/2000/svg" width="300" height="300" viewBox="0 0 24 24">
  <rect width="24" height="24" fill="#f0f0f0"/>
  <path d="M19 3H5c-1.1 0-2 .9-2 2v14c0 1.1.9 2 2 2h14c1.1 0 2-.9 2-2V5c0-1.1-.9-2-2-2zm0 16H5V5h14v14zm-5.04-6.71l-2.75-3.54c-.3-.38-.77-.62-1.3-.62-.93 0-1.69.75-1.69 1.69 0 .53.24 1 .61 1.33l2.07 1.97-2.07 2.5c-.37.33-.61.8-.61 1.33 0 .94.75 1.69 1.69 1.69.53 0 1-.24 1.3-.62l2.75-3.54 2.75 3.54c.3.38.77.62 1.3.62.94 0 1.69-.75 1.69-1.69 0-.53-.24-1-.61-1.33l-2.07-1.97 2.07-2.5c.37-.33.61-.8.61-1.33 0-.94-.75-1.69-1.69-1.69-.53 0-1 .24-1.3.62l-2.75 3.54z" fill="#999"/>
</svg>
